<?xml version="1.0" standalone="no"?>
<!DOCTYPE svg PUBLIC "-//W3C//DTD SVG 20010904//EN"
 "http://www.w3.org/TR/2001/REC-SVG-20010904/DTD/svg10.dtd">
<svg version="1.0" xmlns="http://www.w3.org/2000/svg"
 width="647.000000pt" height="646.000000pt" viewBox="0 0 647.000000 646.000000"
 preserveAspectRatio="xMidYMid meet">

<g transform="translate(0.000000,646.000000) scale(0.100000,-0.100000)"
fill="#000000" stroke="none">
<path d="M3010 6450 c-1044 -78 -1962 -635 -2524 -1530 -130 -206 -275 -532
-345 -773 -80 -273 -120 -534 -128 -829 -9 -308 17 -556 87 -844 246 -1018
982 -1864 1955 -2247 385 -152 750 -221 1175 -221 375 0 659 43 995 151 962
310 1728 1058 2060 2013 243 700 234 1491 -26 2188 -370 993 -1219 1748 -2254
2006 -301 74 -694 108 -995 86z m496 -211 c961 -93 1802 -617 2309 -1439 79
-128 203 -384 254 -522 80 -220 134 -439 167 -683 24 -176 24 -549 0 -728 -92
-702 -395 -1313 -893 -1798 -475 -462 -1030 -737 -1690 -835 -152 -23 -212
-27 -408 -27 -511 -1 -939 101 -1390 331 -439 225 -835 572 -1117 982 -484
702 -648 1611 -439 2437 311 1231 1355 2140 2616 2278 150 16 446 18 591 4z"/>
<path d="M2103 5312 c-109 -39 -173 -102 -214 -211 -29 -78 -23 -186 15 -264
97 -200 369 -251 535 -101 29 26 62 69 78 102 24 50 28 69 28 147 0 76 -4 99
-26 146 -55 117 -163 189 -293 196 -51 3 -85 -2 -123 -15z"/>
<path d="M2089 4441 c-96 -37 -163 -111 -193 -211 -14 -47 -16 -139 -16 -736
l0 -682 482 -428 c265 -236 491 -435 502 -443 18 -13 22 -12 45 16 212 249
1142 1353 1555 1848 88 104 168 209 179 234 28 64 33 146 13 216 -23 75 -106
163 -180 188 -74 25 -179 22 -241 -7 -75 -36 8 60 -1260 -1458 l-430 -516 -5
877 -5 876 -33 67 c-38 78 -94 129 -172 159 -65 25 -178 25 -241 0z"/>
<path d="M4553 3570 c-12 -5 -126 -134 -254 -287 -241 -290 -286 -357 -309
-467 -7 -35 -10 -257 -8 -667 l3 -614 23 -46 c37 -75 87 -125 160 -161 60 -30
76 -33 152 -33 71 0 94 4 141 27 72 33 134 95 168 167 l26 56 3 980 c1 539 0
990 -3 1003 -3 14 -19 29 -40 38 -19 8 -36 14 -37 13 -2 0 -13 -4 -25 -9z"/>
</g>
</svg>
